<svg version="1.1" xmlns="http://www.w3.org/2000/svg" xmlns:xlink="http://www.w3.org/1999/xlink" width="108" height="32.59876" viewBox="0,0,108,32.59876"><g transform="translate(-190,-178.70062)"><g data-paper-data="{&quot;isPaintingLayer&quot;:true}" fill="#000000" fill-rule="nonzero" stroke="#ffffff" stroke-width="4" stroke-linecap="butt" stroke-linejoin="miter" stroke-miterlimit="10" stroke-dasharray="" stroke-dashoffset="0" style="mix-blend-mode: normal"><path d="M196,195.89815v-15.19753h97v15.19753z"/><path d="M217,195.29938c0,7.1797 -5.59644,13 -12.5,13c-6.90356,0 -12.5,-5.8203 -12.5,-13c0,-7.1797 5.59644,-13 12.5,-13c6.90356,0 12.5,5.8203 12.5,13z"/><path d="M296,196.29938c0,7.1797 -5.59644,13 -12.5,13c-6.90356,0 -12.5,-5.8203 -12.5,-13c0,-7.1797 5.59644,-13 12.5,-13c6.90356,0 12.5,5.8203 12.5,13z"/></g></g></svg>