<svg version="1.1" xmlns="http://www.w3.org/2000/svg" xmlns:xlink="http://www.w3.org/1999/xlink" width="73" height="57.59876" viewBox="0,0,73,57.59876"><g transform="translate(-202.5,-157.40124)"><g data-paper-data="{&quot;isPaintingLayer&quot;:true}" fill="#000000" fill-rule="nonzero" stroke="#ffffff" stroke-width="4" stroke-linecap="butt" stroke-linejoin="miter" stroke-miterlimit="10" stroke-dasharray="" stroke-dashoffset="0" style="mix-blend-mode: normal"><path d="M216.5,200.59877v-41.19753h47v41.19753z"/><path d="M229.5,200c0,7.1797 -5.59644,13 -12.5,13c-6.90356,0 -12.5,-5.8203 -12.5,-13c0,-7.1797 5.59644,-13 12.5,-13c6.90356,0 12.5,5.8203 12.5,13z"/><path d="M273.5,199c0,7.1797 -5.59644,13 -12.5,13c-6.90356,0 -12.5,-5.8203 -12.5,-13c0,-7.1797 5.59644,-13 12.5,-13c6.90356,0 12.5,5.8203 12.5,13z"/></g></g></svg>