<svg version="1.1" xmlns="http://www.w3.org/2000/svg" xmlns:xlink="http://www.w3.org/1999/xlink" width="116.91308" height="47.59876" viewBox="0,0,116.91308,47.59876"><g transform="translate(-181.08692,-163.70062)"><g data-paper-data="{&quot;isPaintingLayer&quot;:true}" fill="#000000" fill-rule="nonzero" stroke="#ffffff" stroke-width="4" stroke-linecap="butt" stroke-linejoin="miter" stroke-miterlimit="10" stroke-dasharray="" stroke-dashoffset="0" style="mix-blend-mode: normal"><path d="M183.08692,195.89815v-30.19753h110.11157v30.19753z"/><path d="M222.22689,195.29938c0,7.1797 -5.22616,13 -11.67296,13c-6.4468,0 -11.67296,-5.8203 -11.67296,-13c0,-7.1797 5.22616,-13 11.67296,-13c6.4468,0 11.67296,5.8203 11.67296,13z"/><path d="M296,196.29938c0,7.1797 -5.22616,13 -11.67296,13c-6.4468,0 -11.67296,-5.8203 -11.67296,-13c0,-7.1797 5.22616,-13 11.67296,-13c6.4468,0 11.67296,5.8203 11.67296,13z"/></g></g></svg>