<svg version="1.1" xmlns="http://www.w3.org/2000/svg" xmlns:xlink="http://www.w3.org/1999/xlink" width="45.08475" height="40.17244" viewBox="0,0,45.08475,40.17244"><g transform="translate(-217.45763,-159.91378)"><g data-paper-data="{&quot;isPaintingLayer&quot;:true}" fill="#ffffff" fill-rule="nonzero" stroke="#000000" stroke-width="4" stroke-linecap="butt" stroke-linejoin="miter" stroke-miterlimit="10" stroke-dasharray="" stroke-dashoffset="0" style="mix-blend-mode: normal"><path d="M219.45763,198.08622v-36.17244h41.08475v36.17244z" data-paper-data="{&quot;index&quot;:null}"/><path d="M250.58398,166.92358c0.49327,0 0.89315,3.199 0.89315,7.14517c0,3.94617 -0.39988,7.14517 -0.89315,7.14517c-0.49327,0 -0.89315,-3.199 -0.89315,-7.14517c0,-3.94617 0.39988,-7.14517 0.89315,-7.14517z" data-paper-data="{&quot;index&quot;:null}"/><path d="M232.72104,166.47701c0.49327,0 0.89315,3.199 0.89315,7.14517c0,3.94617 -0.39988,7.14517 -0.89315,7.14517c-0.49327,0 -0.89315,-3.199 -0.89315,-7.14517c0,-3.94617 0.39988,-7.14517 0.89315,-7.14517z" data-paper-data="{&quot;index&quot;:null}"/></g></g></svg>